<svg width="20" height="20" viewBox="0 0 20 20" fill="none" xmlns="http://www.w3.org/2000/svg">
<path d="M3.35918 7.43084L16.2567 3.81918C16.3279 3.79925 16.4032 3.79864 16.4747 3.81743C16.5463 3.83621 16.6115 3.8737 16.6638 3.92605C16.7161 3.9784 16.7535 4.04372 16.7721 4.1153C16.7908 4.18688 16.7901 4.26214 16.77 4.33334L13.1592 17.23C13.1362 17.313 13.0881 17.3868 13.0215 17.4413C12.9549 17.4958 12.8731 17.5284 12.7872 17.5345C12.7014 17.5406 12.6157 17.52 12.5421 17.4755C12.4684 17.431 12.4103 17.3647 12.3758 17.2858L9.66918 11.1342C9.62738 11.0386 9.55126 10.9622 9.45584 10.92L3.30418 8.21334C3.2253 8.17893 3.15901 8.12093 3.11442 8.04733C3.06984 7.97372 3.04913 7.88811 3.05516 7.80226C3.06119 7.71642 3.09365 7.63454 3.14809 7.56789C3.20252 7.50123 3.27626 7.45307 3.35918 7.43001V7.43084Z" stroke="#6D453C" stroke-width="1.25" stroke-linecap="round" stroke-linejoin="round"/>
</svg>
