<svg width="20" height="20" viewBox="0 0 20 20" fill="none" xmlns="http://www.w3.org/2000/svg">
<path d="M9.80127 2.29166H3.12502C2.90401 2.29166 2.69204 2.37945 2.53576 2.53573C2.37948 2.69201 2.29169 2.90398 2.29169 3.12499V16.875C2.29169 17.096 2.37948 17.308 2.53576 17.4642C2.69204 17.6205 2.90401 17.7083 3.12502 17.7083H16.875C17.096 17.7083 17.308 17.6205 17.4643 17.4642C17.6206 17.308 17.7084 17.096 17.7084 16.875V3.12499C17.7084 2.90398 17.6206 2.69201 17.4643 2.53573C17.308 2.37945 17.096 2.29166 16.875 2.29166H14.8134" stroke="#6D453C" stroke-width="0.416667" stroke-linecap="round" stroke-linejoin="round"/>
<path d="M14.4959 10.4408L17.7084 9.94584M2.29169 12.3217L10.55 11.0488M7.46169 11.525L5.90335 2.29167M12.3075 1.40292C11.2517 1.40292 10.2392 1.82233 9.49265 2.56888C8.74609 3.31543 8.32669 4.32797 8.32669 5.38376C8.32669 8.49959 11.3738 12.2546 12.1629 13.1754C12.1857 13.202 12.2139 13.2232 12.2457 13.2378C12.2775 13.2523 12.312 13.2597 12.347 13.2595C12.3819 13.2593 12.4164 13.2515 12.448 13.2366C12.4796 13.2217 12.5076 13.2001 12.53 13.1733C13.3059 12.25 16.2884 8.49751 16.2884 5.38417C16.2884 4.86137 16.1855 4.34367 15.9855 3.86065C15.7854 3.37762 15.4922 2.93873 15.1225 2.56903C14.7529 2.19933 14.314 1.90607 13.831 1.70599C13.348 1.5059 12.8303 1.40292 12.3075 1.40292V1.40292ZM12.3075 6.87167C12.0133 6.87167 11.7257 6.78443 11.4811 6.62098C11.2365 6.45754 11.0458 6.22522 10.9332 5.95341C10.8207 5.68161 10.7912 5.38252 10.8486 5.09398C10.906 4.80543 11.0477 4.54038 11.2557 4.33235C11.4637 4.12432 11.7288 3.98265 12.0173 3.92526C12.3059 3.86786 12.605 3.89732 12.8768 4.0099C13.1486 4.12249 13.3809 4.31314 13.5443 4.55776C13.7078 4.80238 13.795 5.08997 13.795 5.38417C13.795 5.57951 13.7565 5.77294 13.6818 5.95341C13.607 6.13389 13.4975 6.29787 13.3593 6.43599C13.2212 6.57412 13.0572 6.68369 12.8768 6.75844C12.6963 6.8332 12.5029 6.87167 12.3075 6.87167V6.87167Z" stroke="#6D453C" stroke-width="0.416667" stroke-linecap="round" stroke-linejoin="round"/>
</svg>
