<svg width="40" height="40" viewBox="0 0 40 40" fill="none" xmlns="http://www.w3.org/2000/svg">
<path d="M20 3.33334C10.81 3.33334 3.33331 10.81 3.33331 20C3.33331 29.19 10.81 36.6667 20 36.6667C29.19 36.6667 36.6666 29.19 36.6666 20C36.6666 10.81 29.19 3.33334 20 3.33334ZM20 33.3333C12.6483 33.3333 6.66665 27.3517 6.66665 20C6.66665 12.6483 12.6483 6.66668 20 6.66668C27.3516 6.66668 33.3333 12.6483 33.3333 20C33.3333 27.3517 27.3516 33.3333 20 33.3333Z" fill="#6D453C"/>
<path d="M21.6666 11.6667H18.3333V20.69L23.8216 26.1783L26.1783 23.8217L21.6666 19.31V11.6667Z" fill="#6D453C"/>
</svg>
